<svg xmlns="http://www.w3.org/2000/svg" viewBox="0 0 47.5 47.5" id="rice"><path fill="#eee" d="M45 33.75C45 45.486 35.489 45 23.75 45S2.5 45.486 2.5 33.75c0-10 10-23.75 16.25-28.75 3.438-2.5 6.411-2.564 10 0C37.5 11.25 45 27.5 45 33.75"></path><path fill="#ccd6dd" d="M35.322 38.302a1.265 1.265 0 0 1-1.431-2.086l2.087-1.43a1.263 1.263 0 1 1 1.429 2.085l-2.085 1.431ZM38.37 29.434a1.248 1.248 0 0 1-.686-1.629 1.251 1.251 0 0 1 1.63-.686l2.315.944a1.25 1.25 0 0 1-.943 2.315l-2.316-.944ZM32.753 22.864a1.264 1.264 0 0 1 .953-2.343l2.343.956a1.265 1.265 0 0 1-.956 2.34l-2.34-.953ZM6.502 31.614a1.265 1.265 0 0 1 .955-2.343l2.341.956a1.265 1.265 0 0 1-.954 2.342l-2.342-.955ZM10.947 23.927a1.262 1.262 0 0 1-1.757-.33 1.264 1.264 0 0 1 .326-1.756l2.087-1.43a1.265 1.265 0 0 1 1.429 2.086l-2.085 1.43ZM22.233 28.601a1.875 1.875 0 1 1 1.415-3.474l3.473 1.416a1.874 1.874 0 1 1-1.415 3.473l-3.473-1.415ZM14.502 36.166a1.264 1.264 0 0 1 1.632.733 1.267 1.267 0 0 1-.735 1.628l-2.364.9a1.26 1.26 0 0 1-1.628-.732 1.264 1.264 0 0 1 .731-1.633l2.364-.896Z"></path></svg>